# xmcd CD database file
#
# Track frame offsets:
#	150
#	11762
#	20645
#	32192
#	41650
#	58182
#	67950
#	82717
#
# Disc length: 1508 seconds
#
# Revision: 2
# Processed by: cddbd v1.5.1PL0 Copyright (c) Steve Scherf et al.
# Submitted via: CDex 1.51
#
DISCID=6005e208
DTITLE=Alice Cooper - Nobody Likes Me
DYEAR=1900
DGENRE=
TTITLE0=Ain't That Just Like A Woman
TTITLE1=Painting A Picture
TTITLE2=An Instrumental
TTITLE3=I've Written Home To Mother
TTITLE4=Freak Out Song
TTITLE5=Goin' To The River
TTITLE6=Nobody Likes Me
TTITLE7=Science Fiction
EXTD=
EXTT0=
EXTT1=
EXTT2=
EXTT3=
EXTT4=
EXTT5=
EXTT6=
EXTT7=
PLAYORDER=
